<svg width="105" height="68" viewBox="0 0 105 68" fill="none" xmlns="http://www.w3.org/2000/svg">
<g clip-path="url(#clip0_801_150)">
<path d="M26.0203 3.88013L23.1656 11.7813C21.6672 16.0083 19.9719 20.9831 17.5547 28.3532L23.0234 5.47337L18.5938 3.89097L5.63281 39.3216L8.75 40.5139L11.5938 32.6235C13.0922 28.5591 14.6891 23.7794 17.1937 16.1275L11.725 38.8881L16.1 40.4813L29.1813 5.07235L26.0203 3.88013Z" fill="white"/>
<path d="M33.9062 19.986L27.9125 36.3953C27.1521 36.7395 26.3563 37.0011 25.539 37.1756C25.5729 36.8899 25.6427 36.6096 25.7468 36.3411L35.5031 9.61363C36.4 7.21835 36.8375 7.21835 37.1875 7.21835C37.5375 7.21835 37.8875 7.3159 37.8875 8.11794C37.7501 9.32328 37.4369 10.5025 36.9578 11.6187L36.6187 12.4966L39.9 13.678L40.1625 12.8977C40.8198 11.3123 41.19 9.62466 41.2562 7.91201C41.295 6.83509 40.9017 5.7868 40.1625 4.99648C39.7931 4.63262 39.3516 4.34847 38.866 4.16194C38.3803 3.97541 37.861 3.89053 37.3406 3.91264C36.7479 3.89303 36.1579 4 35.6106 4.22628C35.0633 4.45256 34.5716 4.79286 34.1687 5.22409C33.0984 6.50103 32.2919 7.9741 31.7953 9.55944L22.4218 35.2139C21.7218 37.154 21.689 38.6605 22.3453 39.5492C22.5725 39.8525 22.8726 40.0947 23.2184 40.2537C23.5642 40.4127 23.9446 40.4835 24.325 40.4597C25.8453 40.4597 26.6875 39.5167 28.4922 37.4574L30.8875 38.3028L37.1875 21.1673L33.9062 19.986Z" fill="white"/>
<path d="M34.9562 39.2241L38.5547 40.5139L41.2453 33.2305L37.6578 31.9515L34.9562 39.2241Z" fill="white"/>
<path d="M50.2469 34.7803C49.35 37.1865 48.9125 37.1865 48.5625 37.1865C48.2125 37.1865 47.8625 37.0781 47.8625 36.2869C47.9989 35.0767 48.3159 33.8932 48.8032 32.7752L57.2688 9.61363C58.1766 7.21835 58.6141 7.21835 58.9641 7.21835C59.3141 7.21835 59.6532 7.31589 59.6532 8.11793C59.5158 9.32328 59.2026 10.5025 58.7235 11.6187L58.3953 12.4966L61.6766 13.678L61.9391 12.8977C62.5955 11.3121 62.9657 9.62454 63.0328 7.912C63.0668 6.83585 62.6742 5.78929 61.9391 4.99648C61.5685 4.63421 61.1269 4.35111 60.6415 4.16469C60.1562 3.97827 59.6374 3.89248 59.1172 3.91264C58.5243 3.89087 57.9336 3.99685 57.386 4.22327C56.8384 4.44968 56.3468 4.79114 55.9453 5.22409C54.867 6.49736 54.0563 7.97134 53.561 9.55944L46.3313 29.372C44.7016 33.8591 44.5375 34.9321 44.5375 36.4928C44.5017 37.566 44.8948 38.6099 45.6313 39.3975C45.9999 39.7624 46.4412 40.0473 46.927 40.2339C47.4129 40.4205 47.9326 40.5048 48.4532 40.4813C49.0466 40.4989 49.6369 40.3899 50.1841 40.1618C50.7313 39.9336 51.2227 39.5917 51.625 39.1591C52.7026 37.8853 53.5132 36.4115 54.0094 34.8237L55.1032 31.7022L51.8219 30.6184L50.2469 34.7803Z" fill="white"/>
<path d="M84.0328 9.61364C84.9297 7.21836 85.3672 7.21836 85.7172 7.21836C86.0672 7.21836 86.4172 7.31591 86.4172 8.11795C86.2805 9.32463 85.9635 10.5045 85.4766 11.6187L85.1484 12.4967L88.4297 13.678L88.7031 12.8977C89.3604 11.3124 89.7307 9.62467 89.7969 7.91202C89.8309 6.83587 89.4383 5.78931 88.7031 4.99649L88.5062 4.81224L89.8297 1.18138L86.5594 0L85.1156 3.97769C84.262 4.09582 83.4668 4.47467 82.8406 5.06152C81.8802 6.01258 81.1671 7.18043 80.7625 8.46478C79.5047 11.9222 79.1 17.1788 78.75 22.3054C78.3891 27.2477 78.0391 31.919 76.9891 34.7804C76.0812 37.1865 75.6437 37.1865 75.2937 37.1865C74.9437 37.1865 74.6047 37.0781 74.6047 36.2869C74.7211 35.0848 75.0121 33.9057 75.4687 32.7861L75.8078 31.9082L72.5266 30.716L72.2641 31.5072C71.6068 33.0925 71.2365 34.7802 71.1703 36.4928C71.1575 37.5161 71.5188 38.5093 72.1875 39.2891L70.8859 42.8333L74.1672 44.0147L75.4687 40.4705C76.4694 40.4329 77.4251 40.0495 78.1703 39.3867C79.1382 38.4395 79.8557 37.2707 80.2594 35.9834C81.5172 32.5477 81.9109 27.2369 82.2937 22.1103H82.0969H82.2937C82.6328 17.1463 82.9828 12.4858 84.0328 9.61364Z" fill="white"/>
<path d="M101.73 3.89099L95.6156 20.6038H93.4281L99.1047 5.07237L95.8344 3.89099L82.8406 39.3325L86.111 40.5139L92.225 23.8986H94.4125L88.7469 39.3325L92.0172 40.5139L105 5.07237L101.73 3.89099Z" fill="white"/>
<path d="M71.5203 3.90182L55.7812 39.3217L59.0625 40.503L66.1391 23.8986H67.375L62.7594 39.3433L66.0406 40.5139L76.1797 5.59261L71.5203 3.90182ZM68.6656 20.5929H67.2656L72.45 8.0746L72.6688 8.16131L68.7312 20.5929H68.6656Z" fill="white"/>
<path d="M11.8672 61.9522L24.0297 61.2369L98.2188 53.5633L98.0437 50.3876H0.175V53.5633H44.4609L87.3578 52.6962L54.9281 54.853L0 60.5324L0.0765625 63.7188L78.0281 68L78.2141 64.8352L24.0297 61.8546L11.8672 61.9522Z" fill="white"/>
</g>
<defs>
<clipPath id="clip0_801_150">
<rect width="105" height="68" fill="white"/>
</clipPath>
</defs>
</svg>
